<svg xmlns="http://www.w3.org/2000/svg" viewBox="0 0 500 500"><g id="freepik--background-complete--inject-63"><path d="M451.74,57.82c.55-4-5.09-7.29-9.33-7.63-2-.16-4.13.14-6-.52-4.15-1.45-5.81-6.81-9.86-8.52-3-1.28-6.51-.14-9.45,1.34S411.23,45.82,408,46c-2.85.19-5.95-.87-8.45.52-1.86,1-2.83,3.18-4.54,4.45A10.9,10.9,0,0,1,389,52.61a16.65,16.65,0,0,0-6.13,1c-1.89.87-3.46,2.87-3.06,4.92Z" style="fill:#eaeaea"></path><path d="M161.31,62.48c.86-6.26-8-11.4-14.6-11.94-3.17-.25-6.45.23-9.45-.81-6.49-2.27-9.09-10.66-15.42-13.33-4.74-2-10.19-.22-14.78,2.09S97.93,43.71,92.79,44c-4.46.29-9.3-1.37-13.21.81-2.91,1.63-4.43,5-7.11,7s-6,2.34-9.3,2.52-6.63.21-9.59,1.57-5.42,4.49-4.8,7.69Z" style="fill:#f5f5f5"></path><path d="M391,98c.84-6.11-7.78-11.14-14.26-11.66-3.09-.25-6.29.22-9.22-.8-6.34-2.21-8.88-10.4-15.06-13-4.63-2-9.95-.21-14.44,2s-8.92,5.1-13.93,5.42c-4.35.28-9.09-1.33-12.9.79-2.84,1.59-4.33,4.86-7,6.8s-5.9,2.29-9.08,2.46-6.47.2-9.37,1.53-5.29,4.39-4.69,7.51Z" style="fill:#f5f5f5"></path><path d="M379.59,465.39c-21.11-9.74-29.73-33.3-32.91-55.3-.54-3.68-1.63-7.45-.47-11s4.82-6.43,8.37-5.48c2.94.79,4.69,3.74,6.67,6.07a21.66,21.66,0,0,0,10,6.64c2.54.79,5.55,1,7.62-.67,2.83-2.3,2.42-6.71,1.75-10.34q-1.89-10.14-3.77-20.28c-.68-3.62-1.35-7.33-.84-11s2.43-7.29,5.71-8.88,7.91-.36,9.28,3.06a35.15,35.15,0,0,1,.91,4.5c.37,1.49,1.37,3,2.88,3.19s2.79-1.12,3.69-2.38c3.09-4.34,4.78-9.51,6.32-14.64s3-10.34,5.66-14.95,6.81-8.62,12-9.85,11.26,1,13.49,5.86.18,10.61-2.32,15.33a82.36,82.36,0,0,1-14,19.12,6.73,6.73,0,0,0-2.28,3.54c-.35,2.56,2.37,4.55,4.91,4.92,2.86.41,5.75-.39,8.64-.57s6.18.52,7.73,3c2.16,3.44-.25,7.89-2.84,11a70.43,70.43,0,0,1-18.42,15.55c-2.5,1.46-5.15,2.82-7,5.08s-2.53,5.76-.77,8.08,5.25,2.55,7.95,1.53,4.94-3,7.42-4.47c4.65-2.78,11.16-3.6,15.13.14,2.61,2.46,3.5,6.37,3,9.94a26.71,26.71,0,0,1-3.89,10c-6.31,10.82-15.19,20.21-26,26.3s-21.38,9.1-33.64,7" style="fill:#eaeaea"></path><path d="M382.78,450.67a332.39,332.39,0,0,1,6.62-37.34q1.14-4.92,2.24-9.7c.75-3.18,1.48-6.34,2.39-9.38a166.57,166.57,0,0,1,6.24-17.18c2.25-5.37,4.57-10.38,6.78-15.05s4.38-9,6.51-12.82A130.89,130.89,0,0,1,425,331.81c1.5-1.94,2.72-3.4,3.55-4.39l1-1.11a2.36,2.36,0,0,1,.34-.36,3,3,0,0,1-.29.41l-.9,1.15c-.8,1-2,2.5-3.45,4.47A137.84,137.84,0,0,0,414,349.43c-2.1,3.85-4.22,8.17-6.42,12.84s-4.49,9.69-6.72,15.05a169.54,169.54,0,0,0-6.17,17.12c-.9,3-1.63,6.16-2.37,9.35s-1.48,6.42-2.23,9.69a337.68,337.68,0,0,0-6.67,37.26" style="fill:#e0e0e0"></path><path d="M394.22,394.19a7.79,7.79,0,0,1-.63-1.49c-.37-1-.86-2.38-1.44-4.15-1.17-3.52-2.6-8.44-4.17-13.87s-3.07-10.32-4.28-13.81c-.6-1.75-1.11-3.16-1.46-4.13a7.46,7.46,0,0,1-.49-1.54,7.36,7.36,0,0,1,.73,1.44c.43.94,1,2.33,1.67,4.06,1.33,3.47,2.91,8.35,4.48,13.79s2.92,10.21,4,13.92l1.24,4.21A7.32,7.32,0,0,1,394.22,394.19Z" style="fill:#e0e0e0"></path><path d="M439.33,377.09a10.83,10.83,0,0,1-1.82.55c-1.18.33-2.89.78-5,1.41-4.19,1.23-9.92,3.13-16.15,5.51s-11.78,4.78-15.74,6.63c-2,.91-3.58,1.69-4.68,2.22a10.68,10.68,0,0,1-1.74.78,10.71,10.71,0,0,1,1.62-1c1.07-.61,2.63-1.46,4.59-2.43,3.92-2,9.46-4.44,15.7-6.84a166.1,166.1,0,0,1,16.27-5.32c2.12-.58,3.85-1,5.05-1.21A9.76,9.76,0,0,1,439.33,377.09Z" style="fill:#e0e0e0"></path><path d="M383.2,449.71a2.53,2.53,0,0,1-.42-.51l-1.11-1.55c-.95-1.35-2.27-3.33-3.88-5.8-3.21-5-7.43-11.91-12-19.66S357.1,407.43,354,402.43l-3.7-5.91c-.4-.65-.73-1.18-1-1.62a2.11,2.11,0,0,1-.31-.59,2.55,2.55,0,0,1,.42.51l1.1,1.55c1,1.34,2.27,3.33,3.88,5.8,3.21,4.94,7.43,11.91,12,19.67s8.7,14.74,11.81,19.75l3.69,5.91,1,1.62A2.33,2.33,0,0,1,383.2,449.71Z" style="fill:#e0e0e0"></path><path d="M441.64,418.58a2.67,2.67,0,0,1-.57.37l-1.7.92-6.25,3.35c-5.28,2.82-12.53,6.81-20.54,11.23s-15.3,8.34-20.64,11.05c-2.67,1.36-4.85,2.44-6.36,3.15l-1.75.82a2.43,2.43,0,0,1-.63.24,2.35,2.35,0,0,1,.57-.37l1.69-.92,6.26-3.35c5.28-2.82,12.53-6.81,20.54-11.23s15.29-8.34,20.63-11c2.68-1.36,4.85-2.44,6.36-3.15l1.75-.82A3,3,0,0,1,441.64,418.58Z" style="fill:#e0e0e0"></path><polygon points="472.76 214.4 453.57 198.63 453.46 207.16 399.93 206.49 399.75 220.5 453.29 221.16 453.19 229.38 472.76 214.4" style="fill:#eaeaea"></polygon><polygon points="444.23 237.07 431.84 226.9 431.77 232.4 397.21 231.97 397.1 241.01 431.66 241.44 431.59 246.75 444.23 237.07" style="fill:#eaeaea"></polygon><path d="M37.11,110.05s-11.16,3.47-.62,27.43,18.1,36,18.1,36,1.79,5.52-2.8,6.1-14.52-1.59-16.87,3.85C32.49,189,36.37,194.72,44.59,200S70.42,217.45,72,218.56s3,3.69,0,4.59-25.73,1.95-24.58,12.67,26.47,21.63,29.21,22.87,3.35,2.48,3,4-8,1.16-14.4,1.72-13.8,2.35-12.62,8.48,15.77,19.71,52.77,25.5L122.71,300,133,285.84c20.17-31.55,19.67-51.48,15.85-56.42s-10-.61-14.7,3.84-9.48,10.41-10.84,9.64-1.87-2-1-4.92,9.5-29.08,2.22-37-23.07,8.32-25.78,10-3.68-1.12-3.46-3,2.74-23.19,4.24-32.84-.18-16.32-6-18.24c-5.63-1.85-10.58,7-14.06,10.08S73,165,73,165s-4-13.61-14.95-37.37-21.18-17.5-21.18-17.5" style="fill:#eaeaea"></path><path d="M123.37,304.09c-8-17.48-21.66-48.79-33.54-75.61s-22.65-51.07-30.55-68.59l-9.37-20.74-2.54-5.64c-.28-.64-.5-1.12-.65-1.48s-.21-.51-.21-.51.1.17.26.49.39.83.69,1.45c.62,1.3,1.5,3.18,2.64,5.6,2.29,4.86,5.54,11.93,9.53,20.67,8,17.48,18.82,41.72,30.69,68.53s25.5,58.15,33.4,75.67" style="fill:#e0e0e0"></path><path d="M48.68,187a6.35,6.35,0,0,1,1.19.41c.76.29,1.83.74,3.16,1.32,2.65,1.15,6.27,2.83,10.23,4.75l10.13,5,3.08,1.49a6,6,0,0,1,1.11.59,6,6,0,0,1-1.2-.4c-.75-.29-1.83-.75-3.15-1.33C70.59,197.6,67,195.88,63,194l-10.16-4.9-3.08-1.47A5.22,5.22,0,0,1,48.68,187Z" style="fill:#e0e0e0"></path><path d="M78.83,199.47c-.14-.06,3-7.68,7-17s7.36-16.87,7.5-16.81-3,7.68-7,17S79,199.53,78.83,199.47Z" style="fill:#e0e0e0"></path><path d="M95.21,241.47a5.26,5.26,0,0,1,.76-1l2.22-2.7c1.87-2.27,4.44-5.43,7.14-9s5.06-6.91,6.74-9.33l2-2.87a6.12,6.12,0,0,1,.78-1,6.46,6.46,0,0,1-.61,1.14c-.42.71-1,1.72-1.85,3-1.59,2.48-3.9,5.85-6.62,9.44s-5.33,6.72-7.28,8.94c-1,1.11-1.78,2-2.35,2.59A6.73,6.73,0,0,1,95.21,241.47Z" style="fill:#e0e0e0"></path><path d="M65.46,236.18a4.38,4.38,0,0,1,1.18.09l3.2.44c2.69.39,6.41,1,10.51,1.65s7.81,1.31,10.49,1.8l3.17.61a5.2,5.2,0,0,1,1.15.3A5.84,5.84,0,0,1,94,241l-3.19-.44c-2.7-.39-6.42-1-10.52-1.65s-7.81-1.32-10.49-1.81l-3.16-.61A5.18,5.18,0,0,1,65.46,236.18Z" style="fill:#e0e0e0"></path><path d="M75.21,275.09a8.86,8.86,0,0,1,1.51.13l4.1.55c3.46.49,8.23,1.19,13.49,2s10,1.58,13.47,2.16l4.07.72a7.33,7.33,0,0,1,1.48.34,8.86,8.86,0,0,1-1.51-.13l-4.1-.55c-3.46-.48-8.23-1.19-13.49-2s-10-1.58-13.47-2.16l-4.07-.72A7.33,7.33,0,0,1,75.21,275.09Z" style="fill:#e0e0e0"></path><path d="M112.46,280.6a9.54,9.54,0,0,1,.94-1.33l2.69-3.52c2.26-3,5.38-7.09,8.69-11.73s6.21-8.91,8.28-12l2.45-3.69a11.71,11.71,0,0,1,1-1.32,10.06,10.06,0,0,1-.78,1.44c-.53.9-1.31,2.19-2.31,3.77-2,3.17-4.84,7.49-8.16,12.14s-6.49,8.73-8.83,11.65c-1.18,1.45-2.14,2.62-2.83,3.41A9.08,9.08,0,0,1,112.46,280.6Z" style="fill:#e0e0e0"></path></g><g id="freepik--Device--inject-63"><path d="M269,467.23H129.83c-16.82-.07-31-14.41-31-31.23l1.48-350.51A30.46,30.46,0,0,1,131,55.16l139.81.65a30.44,30.44,0,0,1,30.31,30.58l-1.48,350.52A30.45,30.45,0,0,1,269,467.23Z" style="fill:#263238"></path><path d="M270.87,69.13,243.76,69a6.74,6.74,0,0,0-6.61,6.85l0,4.92a6.74,6.74,0,0,1-6.61,6.85l-52.84-.24a6.73,6.73,0,0,1-6.55-6.91l0-4.92a6.74,6.74,0,0,0-6.56-6.91l-9.53,0-23.73-.11a21.33,21.33,0,0,0-21.42,21.24l-1.45,342.13a21.32,21.32,0,0,0,21.23,21.42l139.53.64a21.32,21.32,0,0,0,21.43-21.24L292.1,90.55A21.33,21.33,0,0,0,270.87,69.13Z" style="fill:#f5f5f5"></path><path d="M211.65,389.26c-.16,4.13-.31,8-.44,11.23h20l-2.45-12.31Z" style="fill:#f5f5f5"></path><path d="M130.19,394.41l.17,6.08h78.85c.13-3.41.28-7.2.43-11.1Z" style="fill:#f5f5f5"></path><polygon points="229.81 388.11 232.27 400.49 269.23 400.49 268.78 385.65 229.81 388.11" style="fill:#f5f5f5"></polygon><polygon points="213.65 215.12 220.64 174.61 202.34 173.25 202.34 215.12 213.65 215.12" style="fill:#f5f5f5"></polygon><polygon points="128.54 371.92 108.68 379.7 108.62 393.77 129.13 392.48 128.54 371.92" style="fill:#f5f5f5"></polygon><polygon points="128.45 368.76 127.36 331.03 127.35 331.03 127.35 317.73 108.93 319.68 108.69 376.48 128.44 368.74 128.45 368.76" style="fill:#f5f5f5"></polygon><polygon points="127.35 288.02 109.08 285.61 108.95 316.66 127.35 314.71 127.35 288.02" style="fill:#f5f5f5"></polygon><polygon points="263.54 318.29 262.77 329.1 241.19 331.43 242.86 339.98 267.35 338.13 266.99 325.87 268.94 317.74 263.54 318.29" style="fill:#f5f5f5"></polygon><polygon points="224.64 341.35 241.85 340.06 238.1 320.85 223.08 322.37 224.64 341.35" style="fill:#f5f5f5"></polygon><polygon points="224.81 343.35 226.12 359.36 228.46 381.33 229.41 386.13 268.72 383.65 267.41 340.14 224.81 343.35" style="fill:#f5f5f5"></polygon><path d="M157.15,267.74l1.51,2.6L128.35,288V330l32-2.26L222,321.47,219.75,294l-58.91-7.7.39-3,58.27,7.61-3.82-46.53L158,249.94l-.19-2,57.7-5.55-2-24.28H158L109.33,227l-.24,55.59L127.54,285ZM131.45,326s.23-34.59,0-35.88l24.74-13.16,3.21,47.27Z" style="fill:#f5f5f5"></path><polygon points="261.51 318.49 239.1 320.75 240.8 329.46 260.89 327.29 261.51 318.49" style="fill:#f5f5f5"></polygon><path d="M211.93,381.85c-.07,1.82-.14,3.63-.2,5.4l16.68-1.05-.86-4.31Z" style="fill:#f5f5f5"></path><polygon points="176 215.12 178.94 201.8 201.34 201.8 201.34 173.18 131.31 167.99 131.31 194.86 109.44 199.81 109.34 223.94 157.77 215.12 176 215.12" style="fill:#f5f5f5"></polygon><path d="M222.73,135.49l-.6-2.45,26.74-10.58L231.48,87.54a6.22,6.22,0,0,1-1,.08L201,87.48l.8,48.87Z" style="fill:#f5f5f5"></path><path d="M263.25,116.77l0-47.68L243.76,69a6.74,6.74,0,0,0-6.61,6.85l0,4.92a7,7,0,0,1-2.86,5.64l17.4,34.94Z" style="fill:#f5f5f5"></path><path d="M162.73,118.81l-2.26-50.19-5.41,0-21.15-.1-9,44.89ZM157.91,73.7l.72,40.88-28.11-4.11,6.15-36.77Z" style="fill:#f5f5f5"></path><path d="M163.75,119v.43c0,3.91.12,11,.18,18.5l36.83-1.5L200,87.48l-22.29-.1a6.73,6.73,0,0,1-6.55-6.91l0-4.92a6.74,6.74,0,0,0-6.56-6.91l-3.11,0L163.74,119Z" style="fill:#f5f5f5"></path><path d="M121.93,113l8.92-44.44a21.3,21.3,0,0,0-20.94,21.21l-.1,22.16.1-.65Z" style="fill:#f5f5f5"></path><polygon points="128.31 167.77 109.58 166.38 109.45 196.73 128.31 192.47 128.31 167.77" style="fill:#f5f5f5"></polygon><polygon points="121.73 113.94 109.81 112.23 109.6 161.37 112.17 161.56 121.73 113.94" style="fill:#f5f5f5"></polygon><polygon points="159.56 368.19 159.88 328.73 128.36 330.96 129.48 369.61 159.56 368.19" style="fill:#f5f5f5"></polygon><path d="M165.36,359.08,210,380.46c.54-14,1-27,1-27.87l1,0,.48-.94c.63.32.63.32.3,9.84-.19,5.31-.45,12.38-.72,19.46H227.4l-2.27-21.44-3-37-58.31,5.88Z" style="fill:#f5f5f5"></path><polygon points="274.75 293.6 274.24 288.4 220.75 293.96 223 321.37 269.19 316.71 274.75 293.6" style="fill:#f5f5f5"></polygon><polygon points="201.34 204.8 181.35 204.8 179.07 215.12 201.34 215.12 201.34 204.8" style="fill:#f5f5f5"></polygon><path d="M266.49,208.28l-50.05-3.46-2,11.82,2.11,25.66,52.78-5.07Zm-48.21,8.34,2.69-7.46,43.47,2.75L267,233.25l-47.2,5.6Z" style="fill:#f5f5f5"></path><polygon points="271.68 261.91 269.48 239.22 216.67 244.3 218.66 268.45 271.68 261.91" style="fill:#f5f5f5"></polygon><polygon points="129.19 394.48 108.7 395.77 108.62 394.44 108.59 400.49 129.36 400.49 129.19 394.48" style="fill:#f5f5f5"></polygon><path d="M291.73,105.5l.3.76.07-15.71a21.33,21.33,0,0,0-21.23-21.42l-6.65,0,0,47.27Z" style="fill:#f5f5f5"></path><path d="M209.94,381.55l-45.55-21.82-1.61-31.28-1.9.2-.33,40.49-31.05,1.47,0,.91h0l.6,20.87,79.59-5C209.79,385.44,209.87,383.49,209.94,381.55Zm-78.49-8.36,43.46-3.05,28.27,13.12-71.73,3.88Z" style="fill:#f5f5f5"></path><path d="M278.78,158,280.65,147c-16.34-5.83-17.47-22.87-17.42-28l-10.67,4.22,16.06,32.23Z" style="fill:#f5f5f5"></path><polygon points="220.5 290.97 242.71 288.66 238.34 269.04 218.9 271.44 220.5 290.97" style="fill:#f5f5f5"></polygon><polygon points="266.56 174.95 225.08 174.94 221.64 174.68 216.95 201.85 266.19 205.25 265.05 193.44 269.9 176 266.56 174.95" style="fill:#f5f5f5"></polygon><path d="M265.55,170l.52-13-16.3-32.73-25.28,10L233.18,170Zm-16.77-41.71,14.94,28.42-2.16,8.85-25.56-1-6.39-26.88Z" style="fill:#f5f5f5"></path><polygon points="272 326.39 272.77 351.85 290.74 350.84 290.8 351.84 272.8 352.85 273.71 383.33 290.71 382.26 290.83 384.25 273.77 385.33 274.23 400.49 290.79 400.49 291.15 315.5 274.21 317.21 272 326.39" style="fill:#f5f5f5"></polygon><path d="M162.76,119.83l-38.06-5.47-9.52,47.42,47.75,3.54C163.12,158,163,135.63,162.76,119.83Z" style="fill:#f5f5f5"></path><polygon points="225.36 169.95 231.12 169.95 222.97 136.48 201.79 137.35 202.3 168.24 225.36 169.95" style="fill:#f5f5f5"></polygon><path d="M108.49,424.83l0,7c0,.22,0,.43,0,.64Z" style="fill:#f5f5f5"></path><path d="M163.9,165.39l37.39,2.77-.5-30.77L164,138.89C164,149.3,164.06,160.4,163.9,165.39Z" style="fill:#f5f5f5"></path><polygon points="271.97 264.9 239.33 268.92 243.72 288.56 273.95 285.41 271.97 264.9" style="fill:#f5f5f5"></polygon><path d="M280.82,146l2.09-12.41,9,.7.12-26.71-27.79,11C263.67,137.32,275.48,143.93,280.82,146Z" style="fill:#f5f5f5"></path><polygon points="270.12 193.89 271.25 205.6 291.61 207.01 291.71 182.89 274.67 177.5 270.12 193.89" style="fill:#f5f5f5"></polygon><path d="M279.8,294l-5.34,22.23,16.69-1.69.1-23.3c-5.12-1.35-9.59-2.45-12-2.92Z" style="fill:#f5f5f5"></path><polygon points="268.54 170.32 291.73 177.65 291.79 164.46 269.01 158.57 268.54 170.32" style="fill:#f5f5f5"></polygon><path d="M279,285.22c1.87.28,5.41,1,12.3,2.85l.22-51-17,1.64Z" style="fill:#f5f5f5"></path><polygon points="274.27 236.75 291.49 235.09 291.59 210.02 271.54 208.63 274.27 236.75" style="fill:#f5f5f5"></polygon><path d="M282.74,146.58q4.89,1.48,9.11,2.32l0-12.65-7.33-.57Z" style="fill:#f5f5f5"></path><path d="M280.73,158.5l11.07,2.87.05-11.44c-2.87-.57-6-1.35-9.28-2.36Z" style="fill:#f5f5f5"></path><path d="M290.83,384.25l-.12-2-17,1.07-.91-30.48,18-1-.06-1-18,1L272,326.39l2.21-9.18,16.94-1.71v-1l-16.69,1.69L279.8,294l-.55-5.68c2.41.47,6.88,1.57,12,2.92v-3.12c-6.89-1.81-10.43-2.57-12.3-2.85l-4.5-46.48,17-1.64v-2l-17.22,1.66-2.73-28.12,20,1.39,0-3-20.36-1.41-1.13-11.71,4.55-16.39,17,5.39,0-5.24-23.19-7.32.47-11.76,22.78,5.89v-3.09l-11.07-2.87,1.84-10.93c3.32,1,6.41,1.79,9.28,2.36v-1q-4.22-.84-9.11-2.32l1.83-10.9,7.33.57v-2l-9-.7L280.82,146c-5.34-2-17.15-8.63-16.58-27.42l27.79-11v-1.27l-.3-.76-27.48,10.87,0-47.27h-1l0,47.68-11.58,4.58-17.4-34.94a6.34,6.34,0,0,1-2.79,1.13l17.39,34.92L222.13,133l.6,2.45-21,.86L201,87.48h-1l.8,48.91-36.83,1.5c-.06-7.54-.14-14.59-.18-18.5V119h0l-2.26-50.34h-1l2.26,50.19-37.83-5.43,9-44.89h-2.58c-.16,0-.32,0-.48,0L121.93,113l-12-1.72-.1.65v.35l11.92,1.71-9.56,47.62-2.57-.19,0,5,18.73,1.39v24.7l-18.86,4.26v3.08l21.87-4.95V168l70,5.19V201.8h-22.4L176,215.12H157.77l-48.43,8.81V227L158,218.12h55.48l2,24.28L157.81,248l.19,2,57.68-5.55,3.82,46.53-58.27-7.61-.39,3,58.91,7.7L222,321.47l-61.67,6.23-32,2.26V288l30.31-17.68-1.51-2.6L127.54,285l-18.45-2.44v3L127.35,288v26.69l-18.4,2,0,3,18.42-2V331h0l1.09,37.73v0l-19.75,7.74v3.22l19.86-7.78.59,20.56-20.51,1.29v.67l.08,1.33,20.49-1.29.17,6h1l-.17-6.08,79.45-5c-.15,3.9-.3,7.69-.43,11.1h2c.13-3.22.28-7.1.44-11.23l17.15-1.08,2.45,12.31h1l-2.46-12.38,39-2.46.45,14.84h5m-62.5-13.24c.06-1.77.13-3.58.2-5.4l15.62,0,.86,4.31Zm17.68-1.12-1-4.8-2.33-22-1.31-16,42.6-3.21,1.31,43.51Zm9.69-65.38,22.42-2.26-.63,8.8-20.09,2.17Zm-1,.1,3.75,19.21-17.21,1.29-1.56-19Zm29.25,17.29L242.86,340l-1.67-8.55,21.58-2.33.76-10.81,5.41-.55L267,325.87Zm-29-69.1,4.37,19.62L220.5,291l-1.6-19.53Zm5.38,19.52-4.39-19.64,32.64-4,2,20.51Zm22.47-83.31L217,201.85l4.69-27.17,3.44.26h41.49L269.9,176l-4.85,17.44Zm-3-86.32c-.05,5.15,1.08,22.19,17.42,28L278.78,158l-10.16-2.62-16.06-32.23Zm-13.46,5.32L266.07,157l-.52,13H233.18l-8.69-35.69ZM223,136.48,231.12,170h-5.76l-23.06-1.71-.51-30.89Zm-22.18.91.5,30.77-37.39-2.77c.16-5,.13-16.09,0-26.5Zm-76.09-23,38.06,5.47c.19,15.8.36,38.19.17,45.49l-47.75-3.54Zm95.94,60.25-7,40.51H202.34V173.25ZM181.35,204.8h20v10.32H179.07Zm33.05,11.84,2-11.82,50.05,3.46,2.8,28.95-52.78,5.07Zm55.08,22.58,2.2,22.69-53,6.54-2-24.15ZM220.75,294l53.49-5.56.51,5.2-5.56,23.11L223,321.37Zm4.38,65.5,2.27,21.44H212c.27-7.08.53-14.15.72-19.46.33-9.52.33-9.52-.3-9.84l-.48.94-1,0c0,.83-.43,13.9-1,27.87l-44.62-21.38-1.58-30.73,58.31-5.88Zm-65.26-30.73-.31,39.46-30.08,1.42L128.36,331Zm-30.34,42.81h0l0-.91,31.05-1.47.33-40.49,1.9-.2,1.61,31.28,45.55,21.82c-.07,1.94-.15,3.89-.22,5.83l-79.59,5Z" style="fill:#fff"></path><polygon points="174.91 370.14 131.45 373.19 131.45 387.14 203.19 383.25 174.91 370.14" style="fill:#ebebeb"></polygon><polygon points="264.44 211.91 220.97 209.16 218.28 216.62 219.75 238.85 266.95 233.25 264.44 211.91" style="fill:#ebebeb"></polygon><path d="M108.59,387.25l-.1,37.58v7.66a21.31,21.31,0,0,0,21.2,20.78l139.53.64a21.32,21.32,0,0,0,21.43-21.24l.14-45.42Z" style="fill:#ebebeb"></path><polygon points="158.63 114.58 157.91 73.7 136.68 73.7 130.52 110.47 158.63 114.58" style="fill:#ebebeb"></polygon><polygon points="261.56 165.51 263.72 156.66 248.78 128.24 229.61 137.67 236 164.55 261.56 165.51" style="fill:#ebebeb"></polygon><path d="M131.45,290.08c.23,1.29,0,35.88,0,35.88l28-1.77-3.21-47.27Z" style="fill:#ebebeb"></path><polygon points="224.65 318.17 223.17 296.73 271.1 290.57 271.1 294.27 265.3 313.98 224.65 318.17" style="fill:#ebebeb"></polygon><path d="M269.33,372.77l-.6-14-42.13,2a6.38,6.38,0,0,1-3.19-.68L163.66,330a4.33,4.33,0,0,1-2.37-3.64l-8.13-157.73a2.62,2.62,0,0,1,.79-2,2.65,2.65,0,0,1,2-.74l25.6,1.9v-28h3v28.38a2.63,2.63,0,0,1-.84,1.94,2.66,2.66,0,0,1-2,.7l-25.59-1.9,8.12,157.33a1.34,1.34,0,0,0,.72,1.12l59.76,30.17a3.27,3.27,0,0,0,1.68.36l42.48-2.06a2.61,2.61,0,0,1,1.92.69,2.64,2.64,0,0,1,.86,1.84l.61,14.33Z" style="fill:#fff"></path><path d="M257,122.6a5.84,5.84,0,1,1-5.84-5.84A5.83,5.83,0,0,1,257,122.6Z" style="fill:#FF725E"></path><g style="opacity:0.6000000000000001"><circle cx="251.11" cy="122.6" r="5.84" transform="translate(-26.99 149.95) rotate(-31.64)" style="fill:#fff"></circle></g><path d="M255,122.4a3.89,3.89,0,1,1-3.89-3.88A3.89,3.89,0,0,1,255,122.4Z" style="fill:#FF725E"></path><path d="M270.59,374.91l-.72-16.38a.89.89,0,0,0-.93-.85L225,360l-5.29-66.64L213,216.6v-.07l7.51-41a3.25,3.25,0,0,1,3.19-2.67l39.73-.13a2.84,2.84,0,0,0,2.83-2.66l.68-11a8.23,8.23,0,0,0-.8-4.08l-15.52-32.38.91-.43,15.52,32.38a9.26,9.26,0,0,1,.89,4.58l-.68,11a3.85,3.85,0,0,1-3.83,3.59l-39.73.13a2.24,2.24,0,0,0-2.21,1.85L214,216.64l6.61,76.6,5.22,65.68,43-2.23a1.81,1.81,0,0,1,1.36.48,1.85,1.85,0,0,1,.62,1.31l.72,16.39Z" style="fill:#FF725E"></path><path d="M273.32,373.58a2.5,2.5,0,1,1-2.49-2.49A2.49,2.49,0,0,1,273.32,373.58Z" style="fill:#FF725E"></path><path d="M225.2,327.45a2.34,2.34,0,1,1-2.5-2.18A2.34,2.34,0,0,1,225.2,327.45Z" style="fill:#FF725E"></path><path d="M223.08,329.43a4.23,4.23,0,0,0-3.93,4.51l8.44-.58A4.23,4.23,0,0,0,223.08,329.43Z" style="fill:#FF725E"></path><path d="M256.4,302.6H235.64a3.17,3.17,0,0,0-3.17,3.17v13a3.16,3.16,0,0,0,3.17,3.16h.42v3.11l3.6-3.11H256.4a3.16,3.16,0,0,0,3.17-3.16v-13A3.17,3.17,0,0,0,256.4,302.6Z" style="fill:#FF725E"></path><g style="opacity:0.4"><path d="M256.4,302.6H235.64a3.17,3.17,0,0,0-3.17,3.17v13a3.16,3.16,0,0,0,3.17,3.16h.42v3.11l3.6-3.11H256.4a3.16,3.16,0,0,0,3.17-3.16v-13A3.17,3.17,0,0,0,256.4,302.6Z" style="fill:#fff"></path></g><path d="M242.23,312.82v1.7h-.7V312.8l-2-3.21h.76l1.58,2.6,1.58-2.6h.7Z" style="fill:#fff"></path><path d="M244,312.65a1.95,1.95,0,1,1,1.95,1.91A1.86,1.86,0,0,1,244,312.65Zm3.2,0A1.26,1.26,0,1,0,246,314,1.22,1.22,0,0,0,247.23,312.65Z" style="fill:#fff"></path><path d="M252.33,310.79v3.73h-.64V314a1.5,1.5,0,0,1-1.27.6,1.46,1.46,0,0,1-1.6-1.62v-2.15h.67v2.07c0,.73.37,1.1,1,1.1a1.1,1.1,0,0,0,1.16-1.24v-1.93Z" style="fill:#fff"></path><ellipse cx="133.31" cy="405.07" rx="0.26" ry="1.5" style="fill:#263238"></ellipse><ellipse cx="133.31" cy="411.07" rx="0.26" ry="1.5" style="fill:#263238"></ellipse><ellipse cx="133.31" cy="417.07" rx="0.26" ry="1.5" style="fill:#263238"></ellipse><ellipse cx="133.31" cy="423.07" rx="0.26" ry="1.5" style="fill:#263238"></ellipse><ellipse cx="133.31" cy="428.65" rx="0.26" ry="1.08" style="fill:#263238"></ellipse><path d="M137.56,434.87a4.25,4.25,0,1,0-7.91,2.15h0c.16.28.37.47.57.76l2.47,3.27a.77.77,0,0,0,1.23,0l2.42-3.21A10,10,0,0,0,137,437h0A4.24,4.24,0,0,0,137.56,434.87Zm-4.25,1.85a1.87,1.87,0,1,1,1.87-1.87A1.87,1.87,0,0,1,133.31,436.72Z" style="fill:#455a64"></path><path d="M241.19,436.72c0,.14-21.56.26-48.14.26s-48.14-.12-48.14-.26,21.55-.26,48.14-.26S241.19,436.58,241.19,436.72Z" style="fill:#263238"></path><path d="M203.18,432.5c0,.14-13.06.26-29.16.26s-29.17-.12-29.17-.26,13.05-.26,29.17-.26S203.18,432.35,203.18,432.5Z" style="fill:#FF725E"></path><path d="M160.64,441.5a58.09,58.09,0,0,1-7.71.26,58.31,58.31,0,0,1-7.72-.26,56.33,56.33,0,0,1,7.72-.26A56.12,56.12,0,0,1,160.64,441.5Z" style="fill:#263238"></path><path d="M137.56,401.72a4.25,4.25,0,1,0-7.91,2.15h0v0c.16.27.37.47.57.76l2.47,3.26a.77.77,0,0,0,1.23,0l2.42-3.21a10,10,0,0,0,.62-.82h0A4.22,4.22,0,0,0,137.56,401.72Zm-4.25,1.85a1.87,1.87,0,1,1,1.87-1.87A1.87,1.87,0,0,1,133.31,403.57Z" style="fill:#FF725E"></path><path d="M261.52,403.57c0,.15-26.11.26-58.31.26s-58.3-.11-58.3-.26,26.1-.26,58.3-.26S261.52,403.43,261.52,403.57Z" style="fill:#263238"></path><path d="M227.4,399.35c0,.15-18.48.26-41.27.26s-41.28-.11-41.28-.26,18.48-.26,41.28-.26S227.4,399.21,227.4,399.35Z" style="fill:#FF725E"></path><path d="M190.45,408.35c0,.14-10.12.26-22.61.26s-22.63-.12-22.63-.26,10.13-.26,22.63-.26S190.45,408.21,190.45,408.35Z" style="fill:#263238"></path></g></svg>